<svg xmlns:dc="http://purl.org/dc/elements/1.1/" xmlns:cc="http://creativecommons.org/ns#" xmlns:rdf="http://www.w3.org/1999/02/22-rdf-syntax-ns#" xmlns:svg="http://www.w3.org/2000/svg" xmlns="http://www.w3.org/2000/svg" xmlns:xlink="http://www.w3.org/1999/xlink" id="svg416221" viewBox="0 0 1024 768" height="768px" width="1024px" version="1.1">
  <metadata id="metadata416227">
    <rdf:rdf>
      <cc:work rdf:about="">
        <dc:format>image/svg+xml</dc:format>
        <dc:type rdf:resource="http://purl.org/dc/dcmitype/StillImage"></dc:type>
      </cc:work>
    </rdf:rdf>
  </metadata>
  <defs id="defs416225"></defs>
  <g id="logo-group">
    <image xlink:href="../nounpreview/7072.png" id="icon" width="200" height="200" x="412" y="0" style="display: none;"></image>
    <g id="title" style="font-style:normal;font-weight:700;font-size:72px;line-height:1;font-family:'Comfortaa Bold Alt2';font-variant-ligatures:none;text-align:center;text-anchor:middle" aria-label="AxZ">
      <path id="path416229" style="font-style: normal; font-weight: 700; font-size: 72px; line-height: 1; font-family: &quot;Comfortaa Bold Alt2&quot;; font-variant-ligatures: none; text-align: center; text-anchor: middle; fill: rgb(255, 255, 255);" d="m 489.17769,-5.256 -20.304,-48.456 c -0.648,-1.656 -1.8,-2.52 -3.528,-2.52 -1.656,0 -2.808,0.864 -3.528,2.52 l -20.232,48.312 c -0.288,0.648 -0.36,1.224 -0.36,1.656 0,1.08 0.288,1.944 1.008,2.664 0.72,0.72 1.584,1.08 2.664,1.08 0.72,0 1.368,-0.144 2.016,-0.576 0.576,-0.432 1.08,-0.936 1.44,-1.728 l 17.136,-41.904 16.848,41.904 c 0.216,0.72 0.72,1.296 1.368,1.728 0.648,0.432 1.296,0.576 2.088,0.576 1.008,0 1.944,-0.36 2.664,-1.08 0.72,-0.72 1.08,-1.584 1.08,-2.592 0,-0.432 -0.144,-0.936 -0.36,-1.584 z" transform="translate(0 323.16306795315165) translate(251.9999999999999 -104.32754614609584) scale(3.7444790536722126) translate(-441.22569 56.232)"></path>
      <path id="path416231" style="font-style: normal; font-weight: 700; font-size: 72px; line-height: 1; font-family: &quot;Comfortaa Bold Alt2&quot;; font-variant-ligatures: none; text-align: center; text-anchor: middle; fill: rgb(255, 255, 255);" d="m 527.92269,-3.024 c 0,-0.936 -0.36,-1.8 -1.008,-2.52 l -11.448,-13.68 10.872,-14.184 c 0.648,-0.864 1.008,-1.8 1.008,-2.88 0,-0.864 -0.288,-1.584 -0.864,-2.16 -0.576,-0.576 -1.296,-0.936 -2.232,-0.936 -1.152,0 -2.088,0.432 -2.664,1.224 l -10.584,14.112 -11.808,-14.112 c -0.72,-0.792 -1.584,-1.224 -2.736,-1.224 -1.008,0 -1.8,0.288 -2.376,0.864 -0.576,0.576 -0.792,1.296 -0.792,2.088 0,1.008 0.36,1.872 1.08,2.736 l 11.88,14.04 -11.16,13.968 c -0.72,0.864 -1.008,1.728 -1.008,2.664 0,0.864 0.216,1.584 0.792,2.16 0.576,0.576 1.296,0.864 2.304,0.864 1.008,0 1.872,-0.36 2.592,-1.152 l 10.872,-13.68 11.448,13.68 c 0.576,0.792 1.44,1.152 2.592,1.152 0.936,0 1.728,-0.288 2.304,-0.864 0.576,-0.576 0.936,-1.296 0.936,-2.16 z" transform="translate(0 323.16306795315165) translate(446.95630192944355 -41.24056304982642) scale(3.7444790536722126) translate(-493.29069 39.384)"></path>
      <path id="path416233" style="font-style: normal; font-weight: 700; font-size: 72px; line-height: 1; font-family: &quot;Comfortaa Bold Alt2&quot;; font-variant-ligatures: none; text-align: center; text-anchor: middle; fill: rgb(255, 255, 255);" d="m 536.32081,-50.472 c 0.576,0.576 1.512,0.864 2.664,0.864 h 31.536 l -35.208,43.56 c -0.504,0.648 -0.72,1.368 -0.72,2.232 0,1.008 0.288,1.944 1.008,2.664 0.648,0.792 1.512,1.152 2.664,1.152 h 38.016 c 1.08,0 1.944,-0.288 2.664,-0.864 0.648,-0.576 1.008,-1.44 1.008,-2.52 0,-0.864 -0.36,-1.584 -1.08,-2.232 -0.72,-0.648 -1.584,-1.008 -2.592,-1.008 h -32.328 l 35.352,-43.704 c 0.504,-0.648 0.792,-1.368 0.792,-2.16 0,-1.008 -0.36,-1.872 -1.08,-2.592 -0.72,-0.72 -1.584,-1.152 -2.736,-1.152 h -37.152 c -1.152,0 -2.016,0.36 -2.736,1.008 -0.72,0.648 -1.008,1.44 -0.936,2.448 -0.072,1.008 0.216,1.728 0.864,2.304 z" transform="translate(0 323.16306795315165) translate(601.6112251416997 -104.32754614609584) scale(3.7444790536722126) translate(-534.59281 56.232)"></path>
    </g>
    <g id="tagline" style="font-style:normal;font-weight:500;font-size:32px;line-height:1;font-family:Raleway;font-variant-ligatures:none;text-align:center;text-anchor:middle" aria-label="Compare">
      <path id="path416236" style="font-style: normal; font-weight: 500; font-size: 32px; line-height: 1; font-family: Raleway; font-variant-ligatures: none; text-align: center; text-anchor: middle; fill: rgb(255, 255, 255);" d="m 444.02925,-11.52 q 0,-2.048 0.704,-4.064 0.736,-2.048 2.112,-3.648 1.408,-1.632 3.424,-2.624 2.016,-0.992 4.576,-0.992 3.04,0 5.216,1.376 2.176,1.376 3.232,3.584 l -2.272,1.472 q -0.512,-1.088 -1.248,-1.824 -0.704,-0.736 -1.568,-1.184 -0.832,-0.448 -1.728,-0.64 -0.896,-0.192 -1.76,-0.192 -1.888,0 -3.36,0.8 -1.44,0.768 -2.432,2.048 -0.992,1.248 -1.504,2.848 -0.48,1.568 -0.48,3.168 0,1.792 0.576,3.424 0.608,1.6 1.664,2.848 1.056,1.248 2.496,1.984 1.44,0.736 3.136,0.736 0.896,0 1.824,-0.224 0.96,-0.224 1.824,-0.704 0.864,-0.512 1.6,-1.248 0.768,-0.768 1.248,-1.824 l 2.4,1.312 q -0.544,1.28 -1.536,2.272 -0.96,0.96 -2.208,1.632 -1.216,0.672 -2.592,1.024 -1.376,0.352 -2.688,0.352 -2.336,0 -4.288,-1.024 -1.952,-1.024 -3.392,-2.656 -1.408,-1.664 -2.208,-3.744 -0.768,-2.112 -0.768,-4.288 z" transform="translate(0 453.3461606297556) translate(251.99999999999994 -4.151092676603994) scale(3.370058327932598) translate(-444.02925 22.848)"></path>
      <path id="path416238" style="font-style: normal; font-weight: 500; font-size: 32px; line-height: 1; font-family: Raleway; font-variant-ligatures: none; text-align: center; text-anchor: middle; fill: rgb(255, 255, 255);" d="m 474.16175,0.32 q -1.888,0 -3.456,-0.704 -1.536,-0.704 -2.656,-1.888 -1.088,-1.184 -1.696,-2.752 -0.608,-1.568 -0.608,-3.296 0,-1.76 0.608,-3.328 0.64,-1.568 1.728,-2.752 1.12,-1.184 2.656,-1.888 1.568,-0.704 3.424,-0.704 1.856,0 3.424,0.704 1.568,0.704 2.656,1.888 1.12,1.184 1.728,2.752 0.64,1.568 0.64,3.328 0,1.728 -0.608,3.296 -0.608,1.568 -1.728,2.752 -1.12,1.184 -2.688,1.888 -1.536,0.704 -3.424,0.704 z m -5.536,-8.608 q 0,1.312 0.416,2.432 0.448,1.12 1.184,1.952 0.768,0.832 1.76,1.312 1.024,0.48 2.176,0.48 1.152,0 2.144,-0.48 1.024,-0.48 1.792,-1.312 0.768,-0.864 1.184,-1.984 0.448,-1.152 0.448,-2.464 0,-1.28 -0.448,-2.4 -0.416,-1.152 -1.184,-1.984 -0.768,-0.864 -1.792,-1.344 -0.992,-0.48 -2.144,-0.48 -1.152,0 -2.176,0.512 -0.992,0.48 -1.76,1.344 -0.736,0.832 -1.184,1.984 -0.416,1.12 -0.416,2.432 z" transform="translate(0 453.3461606297556) translate(335.296046662346 15.583968891769288) scale(3.370058327932598) translate(-465.74575 16.992)"></path>
      <path id="path416240" style="font-style: normal; font-weight: 500; font-size: 32px; line-height: 1; font-family: Raleway; font-variant-ligatures: none; text-align: center; text-anchor: middle; fill: rgb(255, 255, 255);" d="m 511.23725,0 h -2.816 v -9.344 q 0,-2.624 -0.864,-3.872 -0.832,-1.248 -2.496,-1.248 -1.728,0 -3.104,1.248 -1.344,1.216 -1.92,3.168 V 0 h -2.816 v -9.344 q 0,-2.688 -0.832,-3.904 -0.832,-1.216 -2.496,-1.216 -1.696,0 -3.072,1.216 -1.376,1.184 -1.952,3.168 V 0 h -2.816 v -16.704 h 2.56 v 3.584 q 1.024,-1.856 2.656,-2.848 1.632,-1.024 3.68,-1.024 2.112,0 3.328,1.152 1.248,1.12 1.536,2.912 2.24,-4.064 6.368,-4.064 1.44,0 2.4,0.544 0.992,0.512 1.568,1.472 0.576,0.928 0.832,2.208 0.256,1.28 0.256,2.784 z" transform="translate(0 453.3461606297556) translate(413.8436811406351 15.583968891769288) scale(3.370058327932598) translate(-486.05325 16.992)"></path>
      <path id="path416242" style="font-style: normal; font-weight: 500; font-size: 32px; line-height: 1; font-family: Raleway; font-variant-ligatures: none; text-align: center; text-anchor: middle; fill: rgb(255, 255, 255);" d="m 524.60775,0.32 q -2.08,0 -3.68,-1.024 -1.568,-1.024 -2.496,-2.592 V 6.816 h -2.816 v -23.52 h 2.496 v 3.136 q 0.992,-1.536 2.56,-2.464 1.6,-0.96 3.52,-0.96 1.728,0 3.168,0.704 1.44,0.704 2.496,1.92 1.056,1.184 1.632,2.752 0.608,1.568 0.608,3.264 0,1.792 -0.544,3.392 -0.544,1.568 -1.536,2.752 -0.992,1.152 -2.368,1.856 -1.376,0.672 -3.04,0.672 z m -0.864,-2.432 q 1.248,0 2.24,-0.512 1.024,-0.544 1.728,-1.408 0.736,-0.896 1.12,-2.016 0.384,-1.12 0.384,-2.304 0,-1.248 -0.448,-2.368 -0.448,-1.152 -1.216,-1.984 -0.768,-0.864 -1.824,-1.344 -1.024,-0.512 -2.24,-0.512 -0.768,0 -1.6,0.32 -0.8,0.288 -1.536,0.8 -0.704,0.48 -1.248,1.184 -0.512,0.672 -0.672,1.44 v 4.768 q 0.352,0.832 0.896,1.568 0.544,0.704 1.248,1.248 0.704,0.512 1.504,0.832 0.8,0.288 1.664,0.288 z" transform="translate(0 453.3461606297556) translate(523.5812054439405 15.583968891769288) scale(3.370058327932598) translate(-515.61575 16.992)"></path>
      <path id="path416244" style="font-style: normal; font-weight: 500; font-size: 32px; line-height: 1; font-family: Raleway; font-variant-ligatures: none; text-align: center; text-anchor: middle; fill: rgb(255, 255, 255);" d="m 539.84125,0.32 q -1.184,0 -2.208,-0.384 -1.024,-0.416 -1.792,-1.12 -0.736,-0.704 -1.184,-1.632 -0.416,-0.96 -0.416,-2.08 0,-1.152 0.512,-2.08 0.512,-0.96 1.44,-1.632 0.96,-0.672 2.24,-1.056 1.312,-0.384 2.848,-0.384 1.216,0 2.464,0.224 1.248,0.224 2.208,0.608 v -1.344 q 0,-2.048 -1.152,-3.2 -1.152,-1.184 -3.264,-1.184 -2.528,0 -5.312,1.952 l -0.928,-1.824 q 3.232,-2.176 6.496,-2.176 3.296,0 5.12,1.76 1.856,1.76 1.856,4.96 v 6.816 q 0,0.992 0.896,1.024 V 0 q -0.448,0.064 -0.736,0.096 -0.288,0.032 -0.608,0.032 -0.832,0 -1.344,-0.48 -0.48,-0.512 -0.576,-1.216 l -0.064,-1.184 q -1.12,1.504 -2.848,2.304 -1.696,0.768 -3.648,0.768 z m 0.736,-2.112 q 1.504,0 2.784,-0.544 1.312,-0.576 1.984,-1.504 0.608,-0.608 0.608,-1.248 v -2.464 q -2.048,-0.8 -4.256,-0.8 -2.112,0 -3.456,0.896 -1.312,0.896 -1.312,2.336 0,0.704 0.256,1.312 0.288,0.608 0.768,1.056 0.512,0.448 1.184,0.704 0.672,0.256 1.44,0.256 z" transform="translate(0 453.3461606297556) translate(596.4604018146467 15.583968891769288) scale(3.370058327932598) translate(-534.24125 16.992)"></path>
      <path id="path416246" style="font-style: normal; font-weight: 500; font-size: 32px; line-height: 1; font-family: Raleway; font-variant-ligatures: none; text-align: center; text-anchor: middle; fill: rgb(255, 255, 255);" d="m 562.13525,-14.24 q -2.112,0.064 -3.744,1.088 -1.6,1.024 -2.272,2.848 V 0 h -2.816 v -16.704 h 2.624 v 3.872 q 0.864,-1.728 2.272,-2.784 1.408,-1.088 3.008,-1.216 0.32,0 0.544,0 0.224,0 0.384,0.032 z" transform="translate(0 453.3461606297556) translate(670.8106286454957 16.1231782242385) scale(3.370058327932598) translate(-553.30325 16.832)"></path>
      <path id="path416248" style="font-style: normal; font-weight: 500; font-size: 32px; line-height: 1; font-family: Raleway; font-variant-ligatures: none; text-align: center; text-anchor: middle; fill: rgb(255, 255, 255);" d="m 571.94525,0.32 q -1.888,0 -3.456,-0.672 -1.568,-0.704 -2.688,-1.888 -1.12,-1.184 -1.76,-2.752 -0.608,-1.6 -0.608,-3.36 0,-1.76 0.608,-3.328 0.64,-1.568 1.76,-2.752 1.152,-1.184 2.72,-1.856 1.568,-0.704 3.456,-0.704 1.888,0 3.424,0.704 1.568,0.704 2.656,1.888 1.088,1.152 1.664,2.72 0.608,1.536 0.608,3.2 0,0.352 -0.032,0.64 0,0.288 -0.032,0.448 h -13.856 q 0.096,1.248 0.576,2.272 0.48,1.024 1.248,1.76 0.768,0.736 1.728,1.152 0.992,0.416 2.08,0.416 0.768,0 1.504,-0.192 0.736,-0.224 1.376,-0.576 0.64,-0.352 1.12,-0.864 0.512,-0.512 0.768,-1.152 l 2.432,0.672 q -0.416,0.928 -1.152,1.696 -0.704,0.768 -1.664,1.344 -0.928,0.544 -2.08,0.864 -1.152,0.32 -2.4,0.32 z m 5.728,-9.792 q -0.096,-1.184 -0.608,-2.176 -0.48,-1.024 -1.248,-1.728 -0.736,-0.704 -1.728,-1.088 -0.992,-0.416 -2.112,-0.416 -1.12,0 -2.112,0.416 -0.992,0.384 -1.76,1.12 -0.736,0.704 -1.216,1.696 -0.448,0.992 -0.544,2.176 z" transform="translate(0 453.3461606297556) translate(715.0594944912508 15.583968891769288) scale(3.370058327932598) translate(-563.43325 16.992)"></path>
    </g>
  </g>
</svg>